PathFileType        4      (X/Y/Z)      C:\Users\pc\Desktop\IMUTRC\Sujet_04\Sujet_04_Tpose.trc         
DataRate	CameraRate	NumFrames	NumMarkers	Units	OrigDataRate	OrigDataStartFrame	OrigNumFrames
60.0	60.0	4	64	mm	60.0	56	149
Frame#	Time	pHipOrigin			pRightASI			pLeftASI			pRightCSI			pLeftCSI			pRightIschialTub			pLeftIschialTub			pSacrum			pL5SpinalProcess			pL3SpinalProcess			pT12SpinalProcess			pIJ			pT4SpinalProcess			pT8SpinalProcess			pPX			pC7SpinalProcess			pTopOfHead			pRightAuricularis			pLeftAuricularis			pBackOfHead			pRightAcromion			pLeftAcromion			pRightArmLatEpicondyle			pRightArmMedEpicondyle			pLeftArmLatEpicondyle			pLeftArmMedEpicondyle			pRightUlnarStyloid			pRightRadialStyloid			pRightOlecranon			pLeftUlnarStyloid			pLeftRadialStyloid			pLeftOlecranon			pRightTopOfHand			pRightPinky			pRightBallHand			pLeftTopOfHand			pLeftPinky			pLeftBallHand			pRightGreaterTrochanter			pRightKneeLatEpicondyle			pRightKneeMedEpicondyle			pRightPatella			pLeftGreaterTrochanter			pLeftKneeLatEpicondyle			pLeftKneeMedEpicondyle			pLeftPatella			pRightTibialTub			pRightLatMalleolus			pRightMedMalleolus			pLeftTibialTub			pLeftLatMalleolus			pLeftMedMalleolus			pRightHeelFoot			pRightFirstMetatarsal			pRightFifthMetatarsal			pRightPivotFoot			pRightHeelCenter			pRightToe			pLeftHeelFoot			pLeftFirstMetatarsal			pLeftFifthMetatarsal			pLeftPivotFoot			pLeftHeelCenter			pLeftToe			
		X1	Y1	Z1	X2	Y2	Z2	X3	Y3	Z3	X4	Y4	Z4	X5	Y5	Z5	X6	Y6	Z6	X7	Y7	Z7	X8	Y8	Z8	X9	Y9	Z9	X10	Y10	Z10	X11	Y11	Z11	X12	Y12	Z12	X13	Y13	Z13	X14	Y14	Z14	X15	Y15	Z15	X16	Y16	Z16	X17	Y17	Z17	X18	Y18	Z18	X19	Y19	Z19	X20	Y20	Z20	X21	Y21	Z21	X22	Y22	Z22	X23	Y23	Z23	X24	Y24	Z24	X25	Y25	Z25	X26	Y26	Z26	X27	Y27	Z27	X28	Y28	Z28	X29	Y29	Z29	X30	Y30	Z30	X31	Y31	Z31	X32	Y32	Z32	X33	Y33	Z33	X34	Y34	Z34	X35	Y35	Z35	X36	Y36	Z36	X37	Y37	Z37	X38	Y38	Z38	X39	Y39	Z39	X40	Y40	Z40	X41	Y41	Z41	X42	Y42	Z42	X43	Y43	Z43	X44	Y44	Z44	X45	Y45	Z45	X46	Y46	Z46	X47	Y47	Z47	X48	Y48	Z48	X49	Y49	Z49	X50	Y50	Z50	X51	Y51	Z51	X52	Y52	Z52	X53	Y53	Z53	X54	Y54	Z54	X55	Y55	Z55	X56	Y56	Z56	X57	Y57	Z57	X58	Y58	Z58	X59	Y59	Z59	X60	Y60	Z60	X61	Y61	Z61	X62	Y62	Z62	X63	Y63	Z63	X64	Y64	Z64	
56	0.917	-42.06708	1006.95194	-744.7260799999999	31.83924	1115.06666	-599.3981699999999	29.47007	1112.17744	-893.3476999999999	-16.12186	1187.23945	-626.3835099999999	-18.08653	1184.87029	-866.9979899999998	-102.04735	946.5094	-683.4745499999999	-103.02969	945.29593	-803.7817899999999	-114.1243	1030.1813	-744.3793699999999	-73.90632	1128.24152	-745.2461399999999	-61.82937	1244.85055	-745.3617099999999	-62.29164	1351.92515	-744.7838599999999	101.41172	1569.71477	-748.3087199999999	-54.60631	1551.91716	-743.1081099999999	-62.69614	1458.94196	-743.8593099999999	95.63328	1442.30004	-749.4643999999998	-47.84553	1607.91029	-741.5479299999998	24.21169	1848.81369	-740.1611099999999	31.66588	1751.33132	-675.6158699999999	11.38354	1756.5897	-811.2359899999999	-31.78145	1755.31844	-735.4227799999999	-26.63863	1590.92166	-554.8463499999999	-42.99164	1572.14172	-938.0728699999999	26.23414	1452.8746	-280.8324599999999	68.82129	1408.90062	-308.1645099999999	41.60481	1470.15215	-1211.04664	98.92699	1445.70932	-1186.25711	80.89824	1372.43863	-44.66738999999991	80.32039	1424.79135	-32.53264999999991	45.93864	1406.7626	-300.42138999999986	124.46772	1414.85242	-1447.84735	103.7231	1462.81352	-1460.44436	78.12459	1435.13477	-1192.38227	116.55125	1395.78355	182.48331000000007	109.73268	1350.53832	87.65902000000008	103.78088	1376.59911	5.605090000000084	216.69171	1449.8698	-1652.75103	200.68542	1408.95841	-1557.11776	156.59588	1430.22309	-1485.92731	-41.43146	975.57498	-569.1191099999999	-84.42309	543.17389	-592.2329	-85.34764	541.20922	-676.36707	-37.79103	540.74695	-637.5937	-39.92906	973.78367	-920.3330399999999	-90.66381	542.07599	-900.28184	-95.34435	539.99575	-816.26324	-46.16978	538.89784	-852.89858	-28.31438	500.70232000000004	-636.66914	-122.6764	95.17100000000005	-591.94398	-123.4276	93.49525000000004	-658.22275	-36.11529	500.06669000000005	-853.36086	-123.19646	93.49525000000006	-903.17106	-126.95245	91.64615000000006	-837.00786	-168.38391	6.009580000000038	-621.12513	4.16048	4.115016720200785E-14	-672.03323	8.95659	1.386830000000036	-587.55236	30.45241	-0.05777999999996128	-632.27753	-125.85455	7.049700000000038	-623.55207	121.05844	-0.5200599999999609	-637.36256	-168.49948	3.2359300000000535	-866.76685	5.48952	4.3338300000000505	-820.59707	7.91647	5.5420040722317406E-14	-905.07795	30.68355	2.0802400000000527	-860.98841	-125.91233	5.316170000000053	-865.66895	121.34736	1.0979000000000527	-858.33032	
57	0.933	-42.06708	1006.95194	-744.7260799999999	31.78145	1115.06666	-599.3981699999999	29.47007	1112.17744	-893.3476999999999	-16.17965	1187.23945	-626.3835099999999	-18.08653	1184.87029	-866.9979899999998	-102.10514	946.5094	-683.5323399999999	-103.02969	945.29593	-803.8395799999998	-114.18209	1030.1813	-744.3793699999999	-73.90632	1128.24152	-745.2461399999999	-61.88715	1244.90834	-745.3617099999999	-62.29164	1351.98293	-744.8416499999998	101.52729	1569.65698	-748.4242799999998	-54.54853	1551.91716	-743.2236799999998	-62.63835	1458.94196	-743.9170999999999	95.69106	1442.24226	-749.5221899999999	-47.78775	1607.96808	-741.6634999999999	24.50061	1848.75591	-740.2188899999999	31.83924	1751.27353	-675.6736499999998	11.61468	1756.5897	-811.2937699999999	-31.55031	1755.31844	-735.4805699999998	-26.46528	1590.97945	-554.9619199999999	-42.99164	1572.14172	-938.1306599999999	26.29193	1452.99017	-280.8902399999999	68.82129	1408.95841	-308.2222899999999	41.60481	1470.03658	-1211.10443	98.92699	1445.59375	-1186.3149	80.89824	1372.49642	-44.72516999999991	80.32039	1424.84913	-32.53264999999991	45.99643	1406.87817	-300.4791799999999	124.46772	1414.67907	-1447.90513	103.7231	1462.64017	-1460.50214	78.12459	1435.0192	-1192.44005	116.55125	1395.72577	182.4255300000001	109.73268	1350.53832	87.60124000000009	103.7231	1376.6569	5.547310000000085	216.63393	1449.63867	-1652.8666	200.62763	1408.72727	-1557.17554	156.59588	1430.04974	-1485.98509	-41.43146	975.57498	-569.1191099999999	-84.48088	543.17389	-592.2329	-85.40543	541.20922	-676.36707	-37.84882	540.74695	-637.53591	-39.92906	973.78367	-920.3330399999999	-90.66381	542.07599	-900.28184	-95.34435	539.99575	-816.26324	-46.16978	538.89784	-852.89858	-28.31438	500.70232000000004	-636.66914	-122.6764	95.22878000000004	-591.94398	-123.4276	93.49525000000004	-658.22275	-36.11529	500.06669000000005	-853.36086	-123.19646	93.49525000000006	-903.17106	-126.95245	91.64615000000006	-837.00786	-168.38391	6.009580000000038	-621.12513	4.16048	0.057780000000041146	-672.03323	8.95659	1.386830000000036	-587.55236	30.45241	-0.05777999999996128	-632.27753	-125.85455	7.049700000000038	-623.55207	121.05844	-0.5200599999999609	-637.36256	-168.49948	3.2359300000000535	-866.76685	5.48952	4.3338300000000505	-820.59707	7.91647	5.5420040722317406E-14	-905.07795	30.68355	2.0802400000000527	-860.98841	-125.91233	5.316170000000053	-865.66895	121.34736	1.0979000000000527	-858.33032	
58	0.95	-42.12487	1006.95194	-744.7260799999999	31.78145	1115.12445	-599.3981699999999	29.52786	1112.17744	-893.3476999999999	-16.17965	1187.29723	-626.3835099999999	-18.02875	1184.87029	-866.9979899999998	-102.10514	946.5094	-683.5323399999999	-103.02969	945.29593	-803.8395799999998	-114.18209	1030.1813	-744.4371599999998	-73.9641	1128.24152	-745.2461399999999	-61.88715	1244.90834	-745.4194899999999	-62.29164	1351.98293	-744.8994299999999	101.58507	1569.65698	-748.5398499999999	-54.49074	1551.97494	-743.2814699999999	-62.63835	1458.94196	-743.9748799999999	95.69106	1442.24226	-749.5799699999999	-47.67218	1607.96808	-741.7212899999998	24.78953	1848.75591	-740.2766799999999	31.9548	1751.21575	-675.7314399999999	11.84581	1756.5897	-811.4093399999999	-31.43474	1755.31844	-735.5961299999999	-26.4075	1591.03723	-555.0774899999999	-42.93385	1572.14172	-938.2462199999999	26.34971	1453.10573	-280.9480299999999	68.82129	1409.07398	-308.2800799999999	41.60481	1469.9788	-1211.16221	98.86921	1445.53597	-1186.37268	80.84046	1372.61199	-44.72516999999991	80.32039	1424.9647	-32.59042999999991	45.99643	1406.93595	-300.5369599999999	124.40994	1414.5635	-1447.96292	103.7231	1462.46682	-1460.61771	78.0668	1434.96141	-1192.49783	116.60903	1395.78355	182.3677500000001	109.73268	1350.59611	87.54345000000009	103.7231	1376.71468	5.489520000000084	216.57614	1449.40753	-1652.92439	200.56985	1408.55392	-1557.23333	156.59588	1429.87638	-1486.04287	-41.48924	975.57498	-569.1191099999999	-84.53866	543.17389	-592.2329	-85.40543	541.20922	-676.36707	-37.9066	540.80473	-637.53591	-39.87128	973.78367	-920.3330399999999	-90.66381	542.07599	-900.28184	-95.34435	539.99575	-816.26324	-46.112	538.89784	-852.89858	-28.37217	500.7601000000001	-636.66914	-122.6764	95.22878000000004	-591.94398	-123.4276	93.49525000000004	-658.22275	-36.0575	500.06669000000005	-853.36086	-123.13868	93.49525000000006	-903.17106	-127.01024	91.64615000000006	-837.00786	-168.38391	6.009580000000038	-621.12513	4.16048	0.057780000000041146	-672.03323	8.95659	1.386830000000036	-587.55236	30.45241	-0.05777999999996128	-632.27753	-125.85455	7.049700000000038	-623.55207	121.05844	-0.5200599999999609	-637.36256	-168.49948	3.2359300000000535	-866.76685	5.48952	4.3338300000000505	-820.59707	7.91647	5.5420040722317406E-14	-905.07795	30.68355	2.0802400000000527	-860.98841	-125.91233	5.316170000000053	-865.66895	121.34736	1.0979000000000527	-858.33032	
59	0.967	-42.12487	1006.95194	-744.7260799999999	31.72367	1115.12445	-599.3981699999999	29.52786	1112.17744	-893.2899199999999	-16.23743	1187.29723	-626.3835099999999	-18.08653	1184.87029	-866.9979899999998	-102.10514	946.5094	-683.5323399999999	-103.02969	945.29593	-803.8395799999998	-114.18209	1030.1813	-744.4371599999998	-73.9641	1128.24152	-745.3039199999998	-61.88715	1244.90834	-745.4194899999999	-62.29164	1351.98293	-744.8994299999999	101.58507	1569.5992	-748.6554199999999	-54.43296	1551.97494	-743.3970399999998	-62.63835	1458.94196	-744.0326699999999	95.69106	1442.18447	-749.6955399999999	-47.67218	1607.96808	-741.8368599999999	24.96289	1848.69813	-740.3344599999999	32.07037	1751.15796	-675.8470099999998	12.01917	1756.5897	-811.5249099999999	-31.26139	1755.37623	-735.7116999999998	-26.34971	1591.09502	-555.1352799999999	-42.93385	1572.08393	-938.3617899999999	26.34971	1453.2213	-281.0058099999999	68.87907	1409.18955	-308.33785999999986	41.60481	1469.92101	-1211.27778	98.86921	1445.47819	-1186.48825	80.89824	1372.78534	-44.84073999999991	80.32039	1425.08027	-32.64821999999992	46.05421	1407.10931	-300.5947399999999	124.40994	1414.39015	-1448.0207	103.66532	1462.35125	-1460.6755	78.0668	1434.90363	-1192.55562	116.60903	1396.01469	182.30996000000007	109.79047	1350.76946	87.48567000000008	103.78088	1376.88804	5.373950000000084	216.51836	1449.17639	-1653.03995	200.51206	1408.38056	-1557.34889	156.53809	1429.70303	-1486.15844	-41.54702	975.57498	-569.1191099999999	-84.59644	543.17389	-592.2329	-85.40543	541.20922	-676.36707	-37.9066	540.80473	-637.53591	-39.87128	973.78367	-920.3330399999999	-90.60603	542.07599	-900.28184	-95.34435	539.99575	-816.26324	-46.112	538.84006	-852.89858	-28.37217	500.7601000000001	-636.61136	-122.6764	95.22878000000004	-591.94398	-123.36982	93.49525000000004	-658.22275	-36.0575	500.06669000000005	-853.36086	-123.13868	93.49525000000006	-903.17106	-127.01024	91.64615000000006	-837.00786	-168.44169	6.009580000000038	-621.12513	4.16048	0.057780000000041146	-672.03323	8.95659	1.386830000000036	-587.55236	30.45241	-0.05777999999996128	-632.27753	-125.85455	7.049700000000038	-623.55207	121.05844	-0.5200599999999609	-637.36256	-168.49948	3.2359300000000535	-866.76685	5.48952	4.3338300000000505	-820.59707	7.91647	5.5420040722317406E-14	-905.07795	30.68355	2.0802400000000527	-860.98841	-125.91233	5.316170000000053	-865.66895	121.34736	1.1556900000000527	-858.33032	
